<svg xmlns="http://www.w3.org/2000/svg" viewBox="0 0 227.16 144.31"><defs><style>.cls-1,.cls-2{fill:#fbb03b;}.cls-1{stroke:#fff;stroke-miterlimit:10;}.cls-3{fill:#fff;}</style></defs><title>Asset 1</title><g id="Layer_2" data-name="Layer 2"><g id="Layer_2-2" data-name="Layer 2"><polygon class="cls-1" points="113.58 44.75 1.43 143.4 225.73 143.4 113.58 44.75"/><polygon class="cls-2" points="111.08 72.15 1.33 0.9 1.33 143.4 111.08 72.15"/><path class="cls-3" d="M108.46,72.15C90.52,60.65,72.68,49.07,54.84,37.27S19.1,13.46,1.06,1.32L1.83.9V143.4L1.06,143q27.07-18.2,53.78-36C72.68,95.23,90.52,83.66,108.46,72.15Zm5.25,0C95.07,84.4,76.32,96.57,57.58,108.52s-37.44,23.69-56,35.3l-.77.48V0L1.6.48q27.81,17.42,56,35.3C76.32,47.73,95.07,59.91,113.71,72.15Z"/><polygon class="cls-2" points="116.07 72.15 225.83 0.9 225.83 143.4 116.07 72.15"/><path class="cls-3" d="M113.06,72.15c18.71-12.3,37.53-24.51,56.35-36.46S207,12,225.56.48l.77-.48V144.3l-.77-.48q-27.86-17.34-56.15-35.21C150.59,96.67,131.77,84.45,113.06,72.15Zm6,0c17.88,11.45,35.64,23,53.41,34.79s35.59,23.85,53.61,36l-.77.42V.9l.77.42q-27,18.29-53.61,36C154.73,49.17,137,60.7,119.09,72.15Z"/><polygon class="cls-2" points="113.58 87.5 1.43 0.9 225.73 0.9 113.58 87.5"/><path class="cls-3" d="M113.58,90.17C75.63,60.59,38.12,30.8,1.12,1.3L0,.4H227.16L226,1.3C189,30.8,151.53,60.59,113.58,90.17Zm0-5.35C150.4,56.68,187.66,28.74,225.43.51l.31.9H1.43l.31-.9C39.5,28.74,76.76,56.68,113.58,84.83Z"/></g></g></svg>